<svg height="512pt" viewBox="-60 0 512 512.001" width="512pt" xmlns="http://www.w3.org/2000/svg"><path d="m278.257812 166.949219v-12.449219c0-4.140625-3.355468-7.5-7.5-7.5-4.144531 0-7.5 3.359375-7.5 7.5v12.449219c0 4.144531 3.355469 7.5 7.5 7.5 4.144532 0 7.5-3.355469 7.5-7.5zm0 0"/><path d="m154.644531 166.949219v-12.449219c0-4.140625-3.355469-7.5-7.5-7.5-4.140625 0-7.5 3.359375-7.5 7.5v12.449219c0 4.144531 3.359375 7.5 7.5 7.5 4.144531 0 7.5-3.355469 7.5-7.5zm0 0"/><path d="m208.953125 177.222656c7.136719 0 13.738281-3.5625 17.660156-9.53125 2.273438-3.460937 1.308594-8.109375-2.152343-10.382812-1.269532-.835938-6.882813-2.996094-10.386719 2.148437-1.679688 2.46875-4.128907 2.765625-5.121094 2.765625-.996094 0-3.484375-.269531-5.125-2.765625-2.273437-3.460937-6.925781-4.425781-10.386719-2.148437-3.460937 2.273437-4.425781 6.921875-2.148437 10.382812 3.917969 5.96875 10.519531 9.53125 17.660156 9.53125zm0 0"/><path d="m385.011719 372.9375c4.144531 0 7.5-3.359375 7.5-7.5v-282.105469c0-45.949219-37.382813-83.332031-83.328125-83.332031h-200.460938c-45.949218 0-83.332031 37.382812-83.332031 83.332031v41.265625s-25.390625-.867187-25.390625 22.390625v30.847657c0 24.277343 25.390625 22.390624 25.390625 22.390624v8.859376s-25.390625-.222657-25.390625 22.390624v13.121094c0 23.144532 25.390625 22.390625 25.390625 22.390625v161.683594c0 45.945313 37.382813 83.328125 83.332031 83.328125h200.460938c45.949218 0 83.328125-37.382812 83.328125-83.328125v-31.84375c0-4.140625-3.355469-7.5-7.5-7.5-4.140625 0-7.5 3.359375-7.5 7.5v31.84375c0 37.675781-30.652344 68.328125-68.328125 68.328125h-200.460938c-37.679687 0-68.332031-30.652344-68.332031-68.328125v-345.339844c0-37.679687 30.652344-68.332031 68.332031-68.332031h200.460938c37.675781 0 68.328125 30.652344 68.328125 68.332031v282.105469c0 4.140625 3.359375 7.5 7.5 7.5zm-370.011719-195.101562v-30.847657c0-8.632812 10.390625-7.390625 10.390625-7.390625v45.628906s-10.390625 2.257813-10.390625-7.390624zm0 66.761718v-13.121094c0-8.363281 10.390625-7.390624 10.390625-7.390624v27.902343s-10.390625-.226562-10.390625-7.390625zm0 0"/><path d="m332.066406 207.113281v-100.007812c0-24.621094-20.03125-44.652344-44.652344-44.652344h-156.925781c-24.621093 0-44.652343 20.03125-44.652343 44.652344v70.117187c0 4.140625 3.359374 7.5 7.5 7.5 4.144531 0 7.5-3.359375 7.5-7.5v-70.117187c0-16.351563 13.300781-29.652344 29.652343-29.652344h156.925781c16.351563 0 29.652344 13.304687 29.652344 29.652344v100.007812c0 16.347657-13.304687 29.648438-29.652344 29.648438h-156.925781c-16.351562 0-29.652343-13.300781-29.652343-29.648438 0-4.140625-3.355469-7.5-7.5-7.5-4.140626 0-7.5 3.359375-7.5 7.5 0 24.621094 20.03125 44.648438 44.652343 44.648438h156.925781c24.621094 0 44.652344-20.03125 44.652344-44.648438zm0 0"/><path d="m129.988281 390.019531c14.34375 0 26.015625-11.671875 26.015625-26.015625v-8.050781h8.050782c14.347656 0 26.019531-11.671875 26.019531-26.019531 0-14.34375-11.671875-26.019532-26.019531-26.019532h-8.050782v-8.046874c0-14.347657-11.671875-26.019532-26.015625-26.019532-14.347656 0-26.023437 11.671875-26.023437 26.019532v8.046874h-8.046875c-14.347657 0-26.019531 11.671876-26.019531 26.019532s11.671874 26.019531 26.019531 26.019531h8.046875v8.050781c.003906 14.34375 11.675781 26.015625 26.023437 26.015625zm-34.070312-49.066406c-6.074219 0-11.015625-4.941406-11.015625-11.019531 0-6.074219 4.941406-11.019532 11.015625-11.019532h15.550781c4.140625 0 7.5-3.359374 7.5-7.5v-15.546874c0-6.078126 4.941406-11.019532 11.019531-11.019532 6.074219 0 11.019531 4.941406 11.019531 11.019532v15.546874c0 4.140626 3.355469 7.5 7.5 7.5h15.546876c6.074218 0 11.019531 4.941407 11.019531 11.019532s-4.941407 11.019531-11.019531 11.019531h-15.546876c-4.144531 0-7.5 3.359375-7.5 7.5v15.546875c0 6.078125-4.945312 11.019531-11.019531 11.019531-6.078125 0-11.019531-4.941406-11.019531-11.019531v-15.546875c0-4.140625-3.359375-7.5-7.5-7.5zm0 0"/><path d="m278.488281 338.519531c0-15.808593-12.863281-28.671875-28.675781-28.671875-15.808594 0-28.671875 12.863282-28.671875 28.671875 0 15.8125 12.863281 28.675781 28.671875 28.675781 15.8125 0 28.675781-12.863281 28.675781-28.675781zm-42.347656 0c0-7.539062 6.132813-13.671875 13.671875-13.671875s13.675781 6.132813 13.675781 13.671875c0 7.542969-6.136719 13.675781-13.675781 13.675781s-13.671875-6.136718-13.671875-13.675781zm0 0"/><path d="m320.027344 367.195312c15.8125 0 28.671875-12.863281 28.671875-28.675781 0-15.808593-12.863281-28.671875-28.671875-28.671875-15.8125 0-28.675782 12.863282-28.675782 28.671875 0 15.8125 12.863282 28.675781 28.675782 28.675781zm0-42.347656c7.539062 0 13.671875 6.132813 13.671875 13.671875 0 7.542969-6.132813 13.675781-13.671875 13.675781-7.539063 0-13.675782-6.132812-13.675782-13.675781 0-7.539062 6.136719-13.671875 13.675782-13.671875zm0 0"/><path d="m216.582031 382.109375h-23c-12.949219 0-23.484375 10.535156-23.484375 23.480469 0 12.949218 10.535156 23.484375 23.484375 23.484375h23c12.949219 0 23.480469-10.535157 23.480469-23.484375 0-12.949219-10.53125-23.480469-23.480469-23.480469zm0 31.964844h-23c-4.679687 0-8.484375-3.804688-8.484375-8.484375 0-4.675782 3.804688-8.480469 8.484375-8.480469h23c4.675781 0 8.480469 3.804687 8.480469 8.480469 0 4.679687-3.804688 8.484375-8.480469 8.484375zm0 0"/><path d="m216.582031 436.496094h-23c-12.949219 0-23.484375 10.535156-23.484375 23.484375s10.535156 23.484375 23.484375 23.484375h23c12.949219 0 23.480469-10.535156 23.480469-23.484375s-10.53125-23.484375-23.480469-23.484375zm0 31.96875h-23c-4.679687 0-8.484375-3.808594-8.484375-8.484375 0-4.679688 3.804688-8.484375 8.484375-8.484375h23c4.675781 0 8.480469 3.808594 8.480469 8.484375s-3.804688 8.484375-8.480469 8.484375zm0 0"/></svg>